<svg width="24" height="24" viewBox="0 0 24 24" fill="none" xmlns="http://www.w3.org/2000/svg">
<path d="M13.4142 12L18 16.5857C18.3906 16.9763 18.3906 17.6094 18 18C17.6095 18.3905 16.9763 18.3905 16.5858 18L11.1956 12.6097C10.8588 12.2729 10.8588 11.727 11.1956 11.3902L16.5858 5.99995C16.9763 5.60943 17.6095 5.60943 18 5.99995C18.3906 6.39048 18.3906 7.02364 18 7.41417L13.4142 12Z" fill="white"/>
<path d="M10.8787 12L6.29294 16.5857C5.90242 16.9763 5.90242 17.6094 6.29294 18C6.68346 18.3905 7.31663 18.3905 7.70715 18L13.0974 12.6097C13.4342 12.2729 13.4342 11.727 13.0974 11.3902L7.70715 5.99995C7.31663 5.60943 6.68346 5.60943 6.29294 5.99995C5.90242 6.39048 5.90242 7.02364 6.29294 7.41417L10.8787 12Z" fill="white"/>
</svg>
